<?xml version="1.0" encoding="UTF-8" standalone="no"?>
<!-- Created with Inkscape (http://www.inkscape.org/) -->

<svg
   version="1.1"
   id="svg1"
   width="4000"
   height="4000"
   viewBox="0 0 4000 4000"
   sodipodi:docname="250727_MKT_LogoVectorial.ai"
   xmlns:inkscape="http://www.inkscape.org/namespaces/inkscape"
   xmlns:sodipodi="http://sodipodi.sourceforge.net/DTD/sodipodi-0.dtd"
   xmlns="http://www.w3.org/2000/svg"
   xmlns:svg="http://www.w3.org/2000/svg">
  <defs
     id="defs1">
    <clipPath
       clipPathUnits="userSpaceOnUse"
       id="clipPath2">
      <path
         d="M 0,3000 H 3000 V 0 H 0 Z"
         transform="translate(-791.30732,-2266.5311)"
         id="path2" />
    </clipPath>
    <clipPath
       clipPathUnits="userSpaceOnUse"
       id="clipPath4">
      <path
         d="M 0,3000 H 3000 V 0 H 0 Z"
         transform="translate(-828.00002,-1080.0309)"
         id="path4" />
    </clipPath>
    <clipPath
       clipPathUnits="userSpaceOnUse"
       id="clipPath6">
      <path
         d="M 0,3000 H 3000 V 0 H 0 Z"
         transform="translate(-1443.9876,-2007.8644)"
         id="path6" />
    </clipPath>
    <clipPath
       clipPathUnits="userSpaceOnUse"
       id="clipPath8">
      <path
         d="M 0,3000 H 3000 V 0 H 0 Z"
         transform="translate(-2173,-2266.5311)"
         id="path8" />
    </clipPath>
    <clipPath
       clipPathUnits="userSpaceOnUse"
       id="clipPath10">
      <path
         d="M 0,3000 H 3000 V 0 H 0 Z"
         transform="translate(-1130.1055,-980.67872)"
         id="path10" />
    </clipPath>
    <clipPath
       clipPathUnits="userSpaceOnUse"
       id="clipPath12">
      <path
         d="M 0,3000 H 3000 V 0 H 0 Z"
         id="path12" />
    </clipPath>
    <clipPath
       clipPathUnits="userSpaceOnUse"
       id="clipPath14">
      <path
         d="M 0,3000 H 3000 V 0 H 0 Z"
         transform="translate(-1352.859,-980.67872)"
         id="path14" />
    </clipPath>
    <clipPath
       clipPathUnits="userSpaceOnUse"
       id="clipPath16">
      <path
         d="M 0,3000 H 3000 V 0 H 0 Z"
         transform="translate(-1507.9746,-878.69822)"
         id="path16" />
    </clipPath>
    <clipPath
       clipPathUnits="userSpaceOnUse"
       id="clipPath18">
      <path
         d="M 0,3000 H 3000 V 0 H 0 Z"
         transform="translate(-1714.4131,-890.959)"
         id="path18" />
    </clipPath>
    <clipPath
       clipPathUnits="userSpaceOnUse"
       id="clipPath20">
      <path
         d="M 0,3000 H 3000 V 0 H 0 Z"
         transform="translate(-1879.6953,-854.8174)"
         id="path20" />
    </clipPath>
  </defs>
  <sodipodi:namedview
     id="namedview1"
     pagecolor="#ffffff"
     bordercolor="#000000"
     borderopacity="0.25"
     inkscape:showpageshadow="2"
     inkscape:pageopacity="0.0"
     inkscape:pagecheckerboard="0"
     inkscape:deskcolor="#d1d1d1">
    <inkscape:page
       x="0"
       y="0"
       inkscape:label="1"
       id="page1"
       width="4000"
       height="4000"
       margin="1071.9174 63.013332 976.79999 61.333332"
       bleed="0" />
  </sodipodi:namedview>
  <g
     id="layer-MC0"
     inkscape:groupmode="layer"
     inkscape:label="Layer 2" />
  <g
     id="layer-MC1"
     inkscape:groupmode="layer"
     inkscape:label="Livello 1">
    <path
       id="path1"
       d="m 0,0 -144.057,-332.5 -396.042,-83.547 c -20.133,-4.247 -34.542,-22.012 -34.542,-42.588 v -560.107 c 0,-12.502 8.835,-23.261 21.097,-25.693 l 233.487,-46.315 3.25,257.75 -171.5,6.5 v 182.25 l 488.5,27 -8.9,-831.75 -669.444,231.823 c -37.236,12.836 -62.31,47.782 -62.541,87.168 -0.869,147.733 -2.919,493.613 -3.115,499.509 -0.25,7.5 -1,203.5 -1,220 0,8.935 0.366,49.544 0.702,84.901 0.321,33.742 21.543,63.74 53.252,75.279 z"
       style="fill:#000000;fill-opacity:1;fill-rule:nonzero;stroke:#000000;stroke-width:1;stroke-linecap:butt;stroke-linejoin:miter;stroke-miterlimit:10;stroke-dasharray:none;stroke-opacity:1"
       transform="matrix(1.3333333,0,0,-1.3333333,1055.0764,977.95867)"
       clip-path="url(#clipPath2)" />
    <path
       id="path3"
       d="m 0,0 v 316.5 l 225.5,611 h 280 L 860.487,-0.167 h -613 L 290,197 H 492 L 375,731.5 142.5,-0.167 Z"
       style="fill:#000000;fill-opacity:1;fill-rule:nonzero;stroke:#000000;stroke-width:1;stroke-linecap:butt;stroke-linejoin:miter;stroke-miterlimit:10;stroke-dasharray:none;stroke-opacity:1"
       transform="matrix(1.3333333,0,0,-1.3333333,1104,2559.9588)"
       clip-path="url(#clipPath4)" />
    <path
       id="path5"
       d="m 0,0 3.012,-188.833 h 277.5 V -928 H 508 v 739.667 H 687.512 V 0 Z"
       style="fill:#000000;fill-opacity:1;fill-rule:nonzero;stroke:#000000;stroke-width:1;stroke-linecap:butt;stroke-linejoin:miter;stroke-miterlimit:10;stroke-dasharray:none;stroke-opacity:1"
       transform="matrix(1.3333333,0,0,-1.3333333,1925.3167,1322.8476)"
       clip-path="url(#clipPath6)" />
    <path
       id="path7"
       d="m 0,0 v -1449 l 708,238.5 71,216.5 -450,-85 v 265 l 356.5,17 v 157 l -354,15.5 V -358 L 710,-431.5 779,-254 Z"
       style="fill:#000000;fill-opacity:1;fill-rule:nonzero;stroke:#000000;stroke-width:1;stroke-linecap:butt;stroke-linejoin:miter;stroke-miterlimit:10;stroke-dasharray:none;stroke-opacity:1"
       transform="matrix(1.3333333,0,0,-1.3333333,2897.3333,977.95867)"
       clip-path="url(#clipPath8)" />
    <path
       id="path9"
       d="M 0,0 -28.817,-77.229 -57.826,0 h -49.424 l -29.236,-172.222 h 52.181 l 11.838,79.045 30.781,-79.045 h 23.554 l 32.684,79.693 11.936,-79.693 H 78.669 L 49.433,0 Z"
       style="fill:#000000;fill-opacity:1;fill-rule:nonzero;stroke:none"
       transform="matrix(1.3333333,0,0,-1.3333333,1506.8073,2692.4284)"
       clip-path="url(#clipPath10)" />
    <path
       id="path11"
       d="m 1224.53,808.457 h 52.169 v 172.222 h -52.169 z"
       style="fill:#000000;fill-opacity:1;fill-rule:nonzero;stroke:none"
       transform="matrix(1.3333333,0,0,-1.3333333,0,4000)"
       clip-path="url(#clipPath12)" />
    <path
       id="path13"
       d="M 0,0 H -52.169 V -172.222 H 50.56 v 45.715 H 0 Z"
       style="fill:#000000;fill-opacity:1;fill-rule:nonzero;stroke:none"
       transform="matrix(1.3333333,0,0,-1.3333333,1803.8119,2692.4284)"
       clip-path="url(#clipPath14)" />
    <path
       id="path15"
       d="m 0,0 h -23.763 l 11.882,33.89 z m -38.349,101.98 -65.554,-172.221 h 55.788 l 9.682,28.184 h 53.102 l 9.682,-28.184 H 80.14 L 14.585,101.98 Z"
       style="fill:#000000;fill-opacity:1;fill-rule:nonzero;stroke:none"
       transform="matrix(1.3333333,0,0,-1.3333333,2010.6328,2828.4024)"
       clip-path="url(#clipPath16)" />
    <path
       id="path17"
       d="m 0,0 -70.452,89.72 h -49.6 V -82.502 h 52.169 V 7.218 L 2.569,-82.502 H 51.954 V 89.72 H 0 Z"
       style="fill:#000000;fill-opacity:1;fill-rule:nonzero;stroke:none"
       transform="matrix(1.3333333,0,0,-1.3333333,2285.8841,2812.0547)"
       clip-path="url(#clipPath18)" />
    <path
       id="path19"
       d="m 0,0 c -5.502,0 -10.773,1 -15.668,2.973 -4.897,1.97 -9.243,4.769 -12.919,8.319 -3.677,3.547 -6.638,7.8 -8.804,12.645 -2.136,4.772 -3.22,10.092 -3.22,15.813 0,5.719 1.084,11.04 3.221,15.815 2.164,4.84 5.127,9.094 8.804,12.645 3.675,3.546 8.022,6.345 12.918,8.317 4.9,1.974 10.172,2.974 15.668,2.974 5.493,0 10.765,-1 15.665,-2.973 4.91,-1.979 9.305,-4.788 13.056,-8.345 3.734,-3.548 6.723,-7.793 8.883,-12.617 2.138,-4.781 3.222,-10.103 3.222,-15.816 0,-5.715 -1.084,-11.036 -3.221,-15.814 C 35.444,19.107 32.456,14.863 28.722,11.319 24.969,7.758 20.577,4.949 15.666,2.972 10.77,1 5.499,0 0,0 m 87.858,75.388 c -4.689,10.963 -11.324,20.664 -19.719,28.832 -8.393,8.167 -18.537,14.642 -30.154,19.247 -11.587,4.586 -24.367,6.912 -37.985,6.912 -13.768,0 -26.588,-2.327 -38.105,-6.917 -11.549,-4.608 -21.624,-11.086 -29.943,-19.257 -8.323,-8.171 -14.916,-17.867 -19.597,-28.818 -4.692,-10.974 -7.072,-22.964 -7.072,-35.637 0,-12.677 2.38,-24.666 7.072,-35.634 4.678,-10.951 11.272,-20.647 19.597,-28.82 8.327,-8.178 18.402,-14.657 29.944,-19.257 11.515,-4.591 24.335,-6.918 38.104,-6.918 13.619,0 26.399,2.326 37.985,6.914 11.609,4.597 21.753,11.071 30.153,19.244 8.399,8.172 15.034,17.873 19.721,28.836 4.693,10.979 7.073,22.968 7.073,35.635 0,12.663 -2.38,24.653 -7.074,35.638"
       style="fill:#000000;fill-opacity:1;fill-rule:nonzero;stroke:none"
       transform="matrix(1.3333333,0,0,-1.3333333,2506.2604,2860.2435)"
       clip-path="url(#clipPath20)" />
  </g>
</svg>
